<?xml version="1.0" encoding="UTF-8" standalone="no"?>
<!-- Created with Inkscape (http://www.inkscape.org/) -->
<svg width="101.02974mm" height="159.63773mm" viewBox="0 0 101.02974 159.63773" version="1.1" id="svg5" xml:space="preserve" inkscape:version="1.2.1 (9c6d41e410, 2022-07-14)" sodipodi:docname="betterlockscreen_v2_dbe.svg" inkscape:export-filename="betterlockscreen_v2_dbe.png" inkscape:export-xdpi="1200" inkscape:export-ydpi="1200" xmlns:inkscape="http://www.inkscape.org/namespaces/inkscape" xmlns:sodipodi="http://sodipodi.sourceforge.net/DTD/sodipodi-0.dtd" xmlns="http://www.w3.org/2000/svg" xmlns:svg="http://www.w3.org/2000/svg"><sodipodi:namedview id="namedview7" pagecolor="#505050" bordercolor="#eeeeee" borderopacity="1" inkscape:showpageshadow="0" inkscape:pageopacity="0" inkscape:pagecheckerboard="0" inkscape:deskcolor="#505050" inkscape:document-units="mm" showgrid="false" inkscape:zoom="0.63290127" inkscape:cx="313.63502" inkscape:cy="341.28546" inkscape:window-width="1920" inkscape:window-height="1136" inkscape:window-x="0" inkscape:window-y="0" inkscape:window-maximized="1" inkscape:current-layer="layer1"><inkscape:grid type="xygrid" id="grid2364" originx="-46.684501" originy="-64.281104"/></sodipodi:namedview><defs id="defs2"><inkscape:path-effect effect="bspline" id="path-effect1084" is_visible="true" lpeversion="1" weight="33.333333" steps="2" helper_size="0" apply_no_weight="true" apply_with_weight="true" only_selected="false"/><inkscape:path-effect effect="bspline" id="path-effect1017" is_visible="true" lpeversion="1" weight="33.333333" steps="2" helper_size="0" apply_no_weight="true" apply_with_weight="true" only_selected="false"/></defs><g inkscape:label="Layer 1" inkscape:groupmode="layer" id="layer1" transform="translate(-46.684502,-64.2811)"><g id="g2640"/><g id="g2777" transform="translate(-440.68613,-232.64872)"><path id="path2579" style="" d="m 537.8855,342.34764 c 0,0 -3.36921,-0.0327 -8.40362,0.31523 v 39.22965 a 21.024302,21.024302 0 0 1 8.40362,-1.7539 21.024302,21.024302 0 0 1 21.02456,21.02404 21.024302,21.024302 0 0 1 -21.02456,21.02404 21.024302,21.024302 0 0 1 -21.02404,-21.02404 V 344.1279 c -9.95163,1.66992 -21.00133,4.90153 -27.25622,11.15642 0,0 -18.01936,83.51829 48.28026,101.28322 66.29964,-17.76493 48.28026,-101.28322 48.28026,-101.28322 -13.29979,-13.2998 -48.28026,-12.93668 -48.28026,-12.93668 z"/><path id="path2614" style="" d="m 537.88551,296.92982 c -22.49495,0 -40.60476,18.10981 -40.60476,40.60476 v 6.88278 c 6.01353,-3.26915 12.7782,-5.11143 19.00659,-6.12572 v -5.22346 c 0,-11.96533 9.63283,-21.59816 21.59817,-21.59816 11.96533,0 21.59816,9.63283 21.59816,21.59816 v 5.64514 c 6.37651,1.20368 13.16389,3.27453 19.00659,6.80837 v -7.98711 c 0,-22.49495 -18.1098,-40.60476 -40.60475,-40.60476 z"/><g id="g2660" transform="translate(431.76765,277.83372)" style=""><g aria-label="l" id="text2654" style=""><path d="m 107.48255,134.5966 c 1.04423,0 2.14489,-0.19756 3.07622,-0.53623 l -0.95955,-3.21733 c -0.28222,0.0847 -0.59267,0.11289 -0.762,0.11289 -0.73378,0 -1.12889,-0.45155 -1.12889,-1.32644 v -16.11488 h -4.79777 v 16.70755 c 0,2.79399 1.66511,4.37444 4.57199,4.37444 z" id="path1851"/></g></g><path id="path2916" style="" d="m 537.06095,342.35152 c -1.26738,0.0104 -3.96482,0.0613 -7.57887,0.3111 v 39.22964 a 21.024302,21.024302 0 0 1 7.57887,-1.711 z m -20.19929,1.77612 c -9.95162,1.66992 -21.00133,4.90154 -27.25622,11.15643 0,0 -17.86508,82.81753 47.45551,101.05378 V 422.13218 A 21.024302,21.024302 0 0 1 516.86166,401.1624 Z"/><path id="path2921" style="" d="m 537.8857,296.93001 c -22.49493,0 -40.60475,18.10983 -40.60475,40.60475 v 6.88279 c 6.01352,-3.26915 12.7782,-5.11144 19.00659,-6.12573 v -5.22345 c 0,-11.96532 9.63283,-21.59817 21.59816,-21.59817 z"/></g></g></svg>